<svg version="1.1" id="Layer_1" xmlns="http://www.w3.org/2000/svg" xmlns:xlink="http://www.w3.org/1999/xlink" x="0px" y="0px"
	 width="100%" viewBox="0 0 500 500" enable-background="new 0 0 500 500" xml:space="preserve">
<path fill="#000000" opacity="1.000000" stroke="none" 
	d="
M221.000000,501.000000 
	C147.333344,501.000000 74.166702,501.000000 1.000039,501.000000 
	C1.000026,334.333405 1.000026,167.666779 1.000013,1.000129 
	C167.666565,1.000086 334.333130,1.000086 500.999756,1.000043 
	C500.999847,167.666534 500.999847,334.333069 500.999939,500.999817 
	C407.833344,501.000000 314.666656,501.000000 221.000000,501.000000 
M277.063293,344.421844 
	C304.537476,347.923767 330.154663,341.404785 354.166748,328.741119 
	C381.552063,314.298401 404.206970,293.537109 426.101685,271.974792 
	C427.746033,270.355377 429.131927,268.407471 430.346497,266.432983 
	C432.217010,263.392120 434.106903,259.957184 430.597870,256.995331 
	C427.261597,254.179291 423.401855,254.460800 420.068207,257.245850 
	C416.235504,260.447815 412.567444,263.853699 408.920166,267.269562 
	C391.619110,283.472778 373.520599,298.688812 353.385101,311.287201 
	C330.625092,325.527710 305.805298,331.886383 279.016815,329.086121 
	C266.120026,327.737976 257.818909,320.107452 254.223145,307.627777 
	C250.856033,295.941711 251.647644,284.196075 254.370514,272.535889 
	C258.365540,255.427948 266.488281,240.192535 275.895996,225.527527 
	C291.613220,201.027054 311.565125,181.082901 338.222443,168.791245 
	C344.850494,165.735046 352.448425,163.901077 359.735718,163.374115 
	C369.314789,162.681427 375.164825,168.277390 376.140717,177.782654 
	C376.641754,182.662918 375.856079,187.700409 375.413086,192.645477 
	C374.954590,197.763596 373.812225,202.847565 373.705017,207.961914 
	C373.611206,212.436493 376.115173,215.492035 380.948547,215.955643 
	C385.845428,216.425339 388.385712,213.681229 389.571930,209.372437 
	C392.479645,198.810440 393.581909,188.109894 391.731415,177.219437 
	C388.552795,158.512619 375.281189,147.560638 356.409912,148.209457 
	C341.934357,148.707153 329.230560,154.377457 317.391235,162.189819 
	C290.491150,179.940338 270.866486,204.311111 254.772659,231.785156 
	C244.274826,249.706223 237.354355,268.779755 236.606064,289.818146 
	C235.589340,318.402832 250.439133,338.921265 277.063293,344.421844 
M169.299973,174.817856 
	C156.583740,176.684555 144.744156,181.000229 134.046265,188.099930 
	C125.326797,193.886597 117.854263,200.954025 113.810677,210.946640 
	C107.768456,225.878372 112.656555,238.124054 127.333771,244.620697 
	C130.368271,245.963867 133.573761,246.944153 136.745422,247.949753 
	C147.220062,251.270828 157.835510,254.191345 168.171906,257.893738 
	C180.810272,262.420685 186.017059,273.301880 181.574203,285.950562 
	C179.839462,290.889313 177.178162,295.757385 173.937714,299.868500 
	C159.655853,317.987640 141.282745,330.797150 119.616791,338.327637 
	C112.107643,340.937653 103.654419,341.644836 95.619492,341.713654 
	C86.506531,341.791687 83.318550,336.129456 86.452080,327.511993 
	C87.243309,325.336090 88.098297,322.989014 89.578491,321.291199 
	C96.430702,313.431671 102.887512,305.051453 110.708649,298.267365 
	C117.149292,292.680725 125.380127,289.187103 132.634079,284.482941 
	C133.991791,283.602448 134.481888,281.384125 135.372375,279.783203 
	C133.749283,279.206665 131.936554,277.850647 130.536606,278.191223 
	C125.081543,279.518433 119.417007,280.702148 114.451515,283.182648 
	C102.083694,289.360962 91.549431,298.233154 82.871147,308.876648 
	C78.023270,314.822327 73.510147,321.673981 71.139633,328.872650 
	C66.440063,343.144012 72.629364,352.376038 87.521080,353.573425 
	C96.523163,354.297272 106.021156,354.048431 114.756157,351.968292 
	C146.641449,344.375214 171.252472,325.143707 192.064056,300.671082 
	C195.533463,296.591370 197.997375,291.354584 199.856705,286.262085 
	C206.470551,268.147675 199.729462,253.764801 181.600220,247.264206 
	C171.104507,243.500763 160.319962,240.550186 149.744431,236.998505 
	C145.187149,235.467972 140.626083,233.711197 136.430832,231.397125 
	C130.469833,228.109024 128.211700,222.916962 130.585709,216.591141 
	C132.349106,211.892334 134.927292,207.050674 138.411453,203.527512 
	C150.550735,191.252243 165.729523,186.059799 182.874680,186.796188 
	C199.068008,187.491669 203.737427,195.289474 196.889343,209.761398 
	C194.346725,215.134674 197.066650,220.216278 202.914490,219.574982 
	C206.253387,219.208801 210.247757,216.933533 212.314758,214.257217 
	C220.151443,204.110535 217.994736,190.570679 207.724030,182.832901 
	C196.511551,174.385559 183.686203,172.851227 169.299973,174.817856 
z"/>
<path fill="#00A600" opacity="1.000000" stroke="none" 
	d="
M276.648438,344.333557 
	C250.439133,338.921265 235.589340,318.402832 236.606064,289.818146 
	C237.354355,268.779755 244.274826,249.706223 254.772659,231.785156 
	C270.866486,204.311111 290.491150,179.940338 317.391235,162.189819 
	C329.230560,154.377457 341.934357,148.707153 356.409912,148.209457 
	C375.281189,147.560638 388.552795,158.512619 391.731415,177.219437 
	C393.581909,188.109894 392.479645,198.810440 389.571930,209.372437 
	C388.385712,213.681229 385.845428,216.425339 380.948547,215.955643 
	C376.115173,215.492035 373.611206,212.436493 373.705017,207.961914 
	C373.812225,202.847565 374.954590,197.763596 375.413086,192.645477 
	C375.856079,187.700409 376.641754,182.662918 376.140717,177.782654 
	C375.164825,168.277390 369.314789,162.681427 359.735718,163.374115 
	C352.448425,163.901077 344.850494,165.735046 338.222443,168.791245 
	C311.565125,181.082901 291.613220,201.027054 275.895996,225.527527 
	C266.488281,240.192535 258.365540,255.427948 254.370514,272.535889 
	C251.647644,284.196075 250.856033,295.941711 254.223145,307.627777 
	C257.818909,320.107452 266.120026,327.737976 279.016815,329.086121 
	C305.805298,331.886383 330.625092,325.527710 353.385101,311.287201 
	C373.520599,298.688812 391.619110,283.472778 408.920166,267.269562 
	C412.567444,263.853699 416.235504,260.447815 420.068207,257.245850 
	C423.401855,254.460800 427.261597,254.179291 430.597870,256.995331 
	C434.106903,259.957184 432.217010,263.392120 430.346497,266.432983 
	C429.131927,268.407471 427.746033,270.355377 426.101685,271.974792 
	C404.206970,293.537109 381.552063,314.298401 354.166748,328.741119 
	C330.154663,341.404785 304.537476,347.923767 276.648438,344.333557 
z"/>
<path fill="#00A600" opacity="1.000000" stroke="none" 
	d="
M169.742218,174.750916 
	C183.686203,172.851227 196.511551,174.385559 207.724030,182.832901 
	C217.994736,190.570679 220.151443,204.110535 212.314758,214.257217 
	C210.247757,216.933533 206.253387,219.208801 202.914490,219.574982 
	C197.066650,220.216278 194.346725,215.134674 196.889343,209.761398 
	C203.737427,195.289474 199.068008,187.491669 182.874680,186.796188 
	C165.729523,186.059799 150.550735,191.252243 138.411453,203.527512 
	C134.927292,207.050674 132.349106,211.892334 130.585709,216.591141 
	C128.211700,222.916962 130.469833,228.109024 136.430832,231.397125 
	C140.626083,233.711197 145.187149,235.467972 149.744431,236.998505 
	C160.319962,240.550186 171.104507,243.500763 181.600220,247.264206 
	C199.729462,253.764801 206.470551,268.147675 199.856705,286.262085 
	C197.997375,291.354584 195.533463,296.591370 192.064056,300.671082 
	C171.252472,325.143707 146.641449,344.375214 114.756157,351.968292 
	C106.021156,354.048431 96.523163,354.297272 87.521080,353.573425 
	C72.629364,352.376038 66.440063,343.144012 71.139633,328.872650 
	C73.510147,321.673981 78.023270,314.822327 82.871147,308.876648 
	C91.549431,298.233154 102.083694,289.360962 114.451515,283.182648 
	C119.417007,280.702148 125.081543,279.518433 130.536606,278.191223 
	C131.936554,277.850647 133.749283,279.206665 135.372375,279.783203 
	C134.481888,281.384125 133.991791,283.602448 132.634079,284.482941 
	C125.380127,289.187103 117.149292,292.680725 110.708649,298.267365 
	C102.887512,305.051453 96.430702,313.431671 89.578491,321.291199 
	C88.098297,322.989014 87.243309,325.336090 86.452080,327.511993 
	C83.318550,336.129456 86.506531,341.791687 95.619492,341.713654 
	C103.654419,341.644836 112.107643,340.937653 119.616791,338.327637 
	C141.282745,330.797150 159.655853,317.987640 173.937714,299.868500 
	C177.178162,295.757385 179.839462,290.889313 181.574203,285.950562 
	C186.017059,273.301880 180.810272,262.420685 168.171906,257.893738 
	C157.835510,254.191345 147.220062,251.270828 136.745422,247.949753 
	C133.573761,246.944153 130.368271,245.963867 127.333771,244.620697 
	C112.656555,238.124054 107.768456,225.878372 113.810677,210.946640 
	C117.854263,200.954025 125.326797,193.886597 134.046265,188.099930 
	C144.744156,181.000229 156.583740,176.684555 169.742218,174.750916 
z"/>
</svg>